<svg xmlns="http://www.w3.org/2000/svg"
 xmlns:xlink="http://www.w3.org/1999/xlink"
 width="16px" height="18px"  viewBox="0 0 16 18">
<path fill-rule="evenodd"  fill="#1c242a"
 d="M2.0,1.0004883 C2.0,1.0004883 14.000061,1.0004883 14.000061,1.0004883 C14.000061,1.0004883 14.000061,2.0003052 14.000061,2.0003052 C14.000061,2.0003052 2.0,2.0003052 2.0,2.0003052 C2.0,2.0003052 2.0,1.0004883 2.0,1.0004883 ZM2.0,15.000366 C2.0,15.000366 14.000061,15.000366 14.000061,15.000366 C14.000061,15.000366 14.000061,16.000122 14.000061,16.000122 C14.000061,16.000122 2.0,16.000122 2.0,16.000122 C2.0,16.000122 2.0,15.000366 2.0,15.000366 ZM13.0,15.000366 C13.0,15.000366 3.0,15.000366 3.0,15.000366 C3.0,15.000366 8.011597,5.962158 8.011597,5.962158 C8.011597,5.962158 13.0,15.000366 13.0,15.000366 ZM13.0,2.0003052 C13.0,2.0003052 3.0,2.0003052 3.0,2.0003052 C3.0,2.0003052 8.0,10.000122 8.0,10.000122 C8.0,10.000122 13.0,2.0003052 13.0,2.0003052 ZM6.000061,4.000183 C6.000061,4.000183 10.0,4.000183 10.0,4.000183 C10.0,4.000183 8.0,7.000183 8.0,7.000183 C8.0,7.000183 8.0,7.000183 8.0,7.000183 C8.0,7.000183 6.000061,4.000183 6.000061,4.000183 ZM8.0,9.000061 C8.0,9.000061 5.0,14.000244 5.0,14.000244 C5.0,14.000244 11.000061,13.000122 11.000061,13.000122 C11.000061,13.000122 8.0,9.000061 8.0,9.000061 ZM7.0,11.000244 C7.0,11.000244 8.0,11.000244 8.0,11.000244 C8.0,11.000244 8.0,12.000366 8.0,12.000366 C8.0,12.000366 7.0,12.000366 7.0,12.000366 C7.0,12.000366 7.0,11.000244 7.0,11.000244 ZM8.0,13.000122 C8.0,13.000122 9.000061,13.000122 9.000061,13.000122 C9.000061,13.000122 9.000061,14.000244 9.000061,14.000244 C9.000061,14.000244 8.0,14.000244 8.0,14.000244 C8.0,14.000244 8.0,13.000122 8.0,13.000122 Z"/>
</svg>